<?xml version="1.0" encoding="UTF-8"?>
<svg width="79px" height="15px" viewBox="0 0 79 15" version="1.1" xmlns="http://www.w3.org/2000/svg" xmlns:xlink="http://www.w3.org/1999/xlink">
    <!-- Generator: Sketch 48.2 (47327) - http://www.bohemiancoding.com/sketch -->
    <title>full-stars</title>
    <desc>Created with Sketch.</desc>
    <defs></defs>
    <g id="Page-1" stroke="none" stroke-width="1" fill="none" fill-rule="evenodd">
        <path d="M14.357,5.07934119 C14.6076398,5.05661792 14.8301862,5.23910598 14.857,5.48934119 C14.8375221,5.65707552 14.7544937,5.81096422 14.625,5.91934119 L11.384,9.07934119 L12.152,13.5393412 C12.1590973,13.5990661 12.1621043,13.6592062 12.161,13.7193412 C12.1875386,13.8299367 12.1610063,13.9465823 12.0892416,14.0348177 C12.0174768,14.123053 11.9086826,14.1727923 11.795,14.1693412 C11.668574,14.1636762 11.5456901,14.1258128 11.438,14.0593412 L7.429,11.9493412 L3.42,14.0593412 C3.31161762,14.1242735 3.18913193,14.1620142 3.063,14.1693412 C2.95367661,14.1733123 2.84898207,14.1250489 2.781,14.0393412 C2.71807063,13.9446645 2.68561787,13.8329991 2.688,13.7193412 C2.68991409,13.6590026 2.69592795,13.598864 2.706,13.5393412 L3.473,9.07934119 L0.223,5.91934119 C0.101302826,5.80601339 0.0225209884,5.65410222 0,5.48934119 C0.0273222859,5.23938105 0.249530374,5.05717042 0.5,5.07934119 L4.982,4.41934119 L6.991,0.359341186 C7.03236887,0.150489007 7.21559012,0 7.4285,0 C7.64140988,0 7.82463113,0.150489007 7.866,0.359341186 L9.875,4.41934119 L14.357,5.07934119 Z M46.357,5.07934119 C46.6076398,5.05661792 46.8301862,5.23910598 46.857,5.48934119 C46.8375221,5.65707552 46.7544937,5.81096422 46.625,5.91934119 L43.384,9.07934119 L44.152,13.5393412 C44.1590973,13.5990661 44.1621043,13.6592062 44.161,13.7193412 C44.1875386,13.8299367 44.1610063,13.9465823 44.0892416,14.0348177 C44.0174768,14.123053 43.9086826,14.1727923 43.795,14.1693412 C43.668574,14.1636762 43.5456901,14.1258128 43.438,14.0593412 L39.429,11.9493412 L35.42,14.0593412 C35.3116176,14.1242735 35.1891319,14.1620142 35.063,14.1693412 C34.9536766,14.1733123 34.8489821,14.1250489 34.781,14.0393412 C34.7180706,13.9446645 34.6856179,13.8329991 34.688,13.7193412 C34.6899141,13.6590026 34.695928,13.598864 34.706,13.5393412 L35.473,9.07934119 L32.223,5.91934119 C32.1013028,5.80601339 32.022521,5.65410222 32,5.48934119 C32.0273223,5.23938105 32.2495304,5.05717042 32.5,5.07934119 L36.982,4.41934119 L38.991,0.359341186 C39.0323689,0.150489007 39.2155901,0 39.4285,0 C39.6414099,0 39.8246311,0.150489007 39.866,0.359341186 L41.875,4.41934119 L46.357,5.07934119 Z M30.357,5.07934119 C30.6076398,5.05661792 30.8301862,5.23910598 30.857,5.48934119 C30.8375221,5.65707552 30.7544937,5.81096422 30.625,5.91934119 L27.384,9.07934119 L28.152,13.5393412 C28.1590973,13.5990661 28.1621043,13.6592062 28.161,13.7193412 C28.1875386,13.8299367 28.1610063,13.9465823 28.0892416,14.0348177 C28.0174768,14.123053 27.9086826,14.1727923 27.795,14.1693412 C27.668574,14.1636762 27.5456901,14.1258128 27.438,14.0593412 L23.429,11.9493412 L19.42,14.0593412 C19.3116176,14.1242735 19.1891319,14.1620142 19.063,14.1693412 C18.9536766,14.1733123 18.8489821,14.1250489 18.781,14.0393412 C18.7180706,13.9446645 18.6856179,13.8329991 18.688,13.7193412 C18.6899141,13.6590026 18.695928,13.598864 18.706,13.5393412 L19.473,9.07934119 L16.223,5.91934119 C16.1013028,5.80601339 16.022521,5.65410222 16,5.48934119 C16.0273223,5.23938105 16.2495304,5.05717042 16.5,5.07934119 L20.982,4.41934119 L22.991,0.359341186 C23.0323689,0.150489007 23.2155901,0 23.4285,0 C23.6414099,0 23.8246311,0.150489007 23.866,0.359341186 L25.875,4.41934119 L30.357,5.07934119 Z M62.357,5.07934119 C62.6076398,5.05661792 62.8301862,5.23910598 62.857,5.48934119 C62.8375221,5.65707552 62.7544937,5.81096422 62.625,5.91934119 L59.384,9.07934119 L60.152,13.5393412 C60.1590973,13.5990661 60.1621043,13.6592062 60.161,13.7193412 C60.1875386,13.8299367 60.1610063,13.9465823 60.0892416,14.0348177 C60.0174768,14.123053 59.9086826,14.1727923 59.795,14.1693412 C59.668574,14.1636762 59.5456901,14.1258128 59.438,14.0593412 L55.429,11.9493412 L51.42,14.0593412 C51.3116176,14.1242735 51.1891319,14.1620142 51.063,14.1693412 C50.9536766,14.1733123 50.8489821,14.1250489 50.781,14.0393412 C50.7180706,13.9446645 50.6856179,13.8329991 50.688,13.7193412 C50.6899141,13.6590026 50.695928,13.598864 50.706,13.5393412 L51.473,9.07934119 L48.223,5.91934119 C48.1013028,5.80601339 48.022521,5.65410222 48,5.48934119 C48.0273223,5.23938105 48.2495304,5.05717042 48.5,5.07934119 L52.982,4.41934119 L54.991,0.359341186 C55.0323689,0.150489007 55.2155901,0 55.4285,0 C55.6414099,0 55.8246311,0.150489007 55.866,0.359341186 L57.875,4.41934119 L62.357,5.07934119 Z M78.357,5.07934119 C78.6076398,5.05661792 78.8301862,5.23910598 78.857,5.48934119 C78.8375221,5.65707552 78.7544937,5.81096422 78.625,5.91934119 L75.384,9.07934119 L76.152,13.5393412 C76.1590973,13.5990661 76.1621043,13.6592062 76.161,13.7193412 C76.1875386,13.8299367 76.1610063,13.9465823 76.0892416,14.0348177 C76.0174768,14.123053 75.9086826,14.1727923 75.795,14.1693412 C75.668574,14.1636762 75.5456901,14.1258128 75.438,14.0593412 L71.429,11.9493412 L67.42,14.0593412 C67.3116176,14.1242735 67.1891319,14.1620142 67.063,14.1693412 C66.9536766,14.1733123 66.8489821,14.1250489 66.781,14.0393412 C66.7180706,13.9446645 66.6856179,13.8329991 66.688,13.7193412 C66.6899141,13.6590026 66.695928,13.598864 66.706,13.5393412 L67.473,9.07934119 L64.223,5.91934119 C64.1013028,5.80601339 64.022521,5.65410222 64,5.48934119 C64.0273223,5.23938105 64.2495304,5.05717042 64.5,5.07934119 L68.982,4.41934119 L70.991,0.359341186 C71.0323689,0.150489007 71.2155901,0 71.4285,0 C71.6414099,0 71.8246311,0.150489007 71.866,0.359341186 L73.875,4.41934119 L78.357,5.07934119 Z" id="full-stars" fill="#ED8000"></path>
    </g>
</svg>