<svg xmlns="http://www.w3.org/2000/svg" width="12.25" height="12.563" viewBox="0 0 12.25 12.563">
  <metadata><?xpacket begin="﻿" id="W5M0MpCehiHzreSzNTczkc9d"?>
<x:xmpmeta xmlns:x="adobe:ns:meta/" x:xmptk="Adobe XMP Core 5.6-c140 79.160451, 2017/05/06-01:08:21        ">
   <rdf:RDF xmlns:rdf="http://www.w3.org/1999/02/22-rdf-syntax-ns#">
      <rdf:Description rdf:about=""/>
   </rdf:RDF>
</x:xmpmeta>
                                                                                                    
                                                                                                    
                                                                                                    
                                                                                                    
                                                                                                    
                                                                                                    
                                                                                                    
                                                                                                    
                                                                                                    
                                                                                                    
                                                                                                    
                                                                                                    
                                                                                                    
                                                                                                    
                                                                                                    
                                                                                                    
                                                                                                    
                                                                                                    
                                                                                                    
                                                                                                    
                           
<?xpacket end="w"?></metadata>
<defs>
    <style>
      .cls-1 {
        fill: #00bfa5;
        fill-rule: evenodd;
      }
    </style>
  </defs>
  <path id="phone-icon" class="cls-1" d="M420.3,28.119a1.5,1.5,0,0,0-.662-0.473q-0.165-.1-0.47-0.268t-0.553-.312q-0.249-.143-0.466-0.277c-0.023-.018-0.1-0.07-0.218-0.156a2.457,2.457,0,0,0-.309-0.192,0.557,0.557,0,0,0-.248-0.062,0.721,0.721,0,0,0-.436.255,4.406,4.406,0,0,0-.479.553,5.378,5.378,0,0,1-.461.554,0.661,0.661,0,0,1-.4.255,0.578,0.578,0,0,1-.2-0.045,1.77,1.77,0,0,1-.178-0.076c-0.041-.021-0.11-0.062-0.209-0.125s-0.154-.1-0.166-0.1a9.163,9.163,0,0,1-2.046-1.554,9.346,9.346,0,0,1-1.515-2.1c-0.006-.012-0.04-0.068-0.1-0.17s-0.1-.172-0.122-0.214a1.787,1.787,0,0,1-.074-0.183,0.594,0.594,0,0,1-.044-0.2,0.686,0.686,0,0,1,.248-0.411,5.415,5.415,0,0,1,.54-0.473,4.206,4.206,0,0,0,.54-0.491,0.743,0.743,0,0,0,.248-0.446,0.59,0.59,0,0,0-.061-0.255,2.454,2.454,0,0,0-.187-0.317c-0.084-.125-0.135-0.2-0.152-0.223q-0.13-.223-0.27-0.478t-0.305-.567c-0.11-.208-0.2-0.369-0.261-0.482a1.532,1.532,0,0,0-.462-0.679,0.479,0.479,0,0,0-.183-0.027,2.826,2.826,0,0,0-.614.089,3.414,3.414,0,0,0-.6.188,2.369,2.369,0,0,0-.923,1.089,3.53,3.53,0,0,0-.444,1.661,3.688,3.688,0,0,0,.03.473,3.736,3.736,0,0,0,.109.513q0.078,0.281.126,0.42t0.179,0.5q0.13,0.357.156,0.438a8.267,8.267,0,0,0,.723,1.563,13.427,13.427,0,0,0,1.881,2.357,13.224,13.224,0,0,0,2.3,1.929,7.8,7.8,0,0,0,1.524.741c0.052,0.018.195,0.071,0.427,0.161s0.393,0.15.483,0.183,0.227,0.076.41,0.13a3.458,3.458,0,0,0,.5.112,3.366,3.366,0,0,0,.462.031,3.314,3.314,0,0,0,1.62-.455,2.357,2.357,0,0,0,1.062-.946,3.593,3.593,0,0,0,.183-0.612,3.019,3.019,0,0,0,.087-0.629,0.521,0.521,0,0,0-.026-0.187h0Z" transform="translate(-408.062 -18.375)"/>
</svg>
