<svg xmlns="http://www.w3.org/2000/svg" width="88" height="106" viewBox="0 0 88 106"><path d="M87.87 94.36L73.842 60.48a1.69 1.69 0 1 0-3.124 1.29L83.4 92.4l-11.567-3.35a1.684 1.684 0 0 0-1.952.81l-5.809 10.55-13.608-32.86a34.106 34.106 0 1 0-33.793-13.14L.131 94.36a1.692 1.692 0 0 0 2.033 2.27l13.647-3.96 6.853 12.45a1.681 1.681 0 0 0 1.481.88h.094a1.7 1.7 0 0 0 1.469-1.04L38.814 73.3a1.69 1.69 0 1 0-3.124-1.29l-11.761 28.4-5.809-10.55a1.682 1.682 0 0 0-1.951-.81L4.6 92.4l14.519-35.06A33.994 33.994 0 0 0 44 68.16c1.012 0 2.014-.04 3-.13l15.289 36.93a1.7 1.7 0 0 0 1.469 1.04h.094a1.68 1.68 0 0 0 1.481-.88l6.853-12.45 13.647 3.96a1.692 1.692 0 0 0 2.037-2.27zM13.312 34.08A30.688 30.688 0 1 1 44 64.78a30.728 30.728 0 0 1-30.688-30.7zm50.225-6.35a1.678 1.678 0 0 0-1.328-1.14l-11.378-1.91-5.332-10.24a1.69 1.69 0 0 0-3 0l-5.332 10.24-11.377 1.91a1.678 1.678 0 0 0-1.328 1.14 1.7 1.7 0 0 0 .4 1.71l8.083 8.23-1.7 11.42a1.686 1.686 0 0 0 2.426 1.76L44 45.71l10.327 5.14a1.672 1.672 0 0 0 .753.18 1.687 1.687 0 0 0 1.673-1.94l-1.7-11.42 8.083-8.23a1.7 1.7 0 0 0 .401-1.71zM52.05 35.91a1.682 1.682 0 0 0-.466 1.43l1.346 9.04-8.176-4.08a1.757 1.757 0 0 0-1.508 0l-8.176 4.08 1.346-9.04a1.682 1.682 0 0 0-.466-1.43l-6.4-6.52 9.009-1.52a1.663 1.663 0 0 0 1.219-.88L44 18.88l4.221 8.11a1.667 1.667 0 0 0 1.22.88l9.008 1.52zm17.563-.12a1.687 1.687 0 0 0-1.9 1.45 23.93 23.93 0 1 1 0-6.32 1.69 1.69 0 1 0 3.352-.44 27.311 27.311 0 1 0 0 7.21 1.69 1.69 0 0 0-1.452-1.9z" fill="#fff" fill-rule="evenodd"/></svg>