<svg xmlns="http://www.w3.org/2000/svg" width="16" height="16" viewBox="0 0 16 16">
  <metadata><?xpacket begin="﻿" id="W5M0MpCehiHzreSzNTczkc9d"?>
<x:xmpmeta xmlns:x="adobe:ns:meta/" x:xmptk="Adobe XMP Core 5.6-c140 79.160451, 2017/05/06-01:08:21        ">
   <rdf:RDF xmlns:rdf="http://www.w3.org/1999/02/22-rdf-syntax-ns#">
      <rdf:Description rdf:about=""/>
   </rdf:RDF>
</x:xmpmeta>
                                                                                                    
                                                                                                    
                                                                                                    
                                                                                                    
                                                                                                    
                                                                                                    
                                                                                                    
                                                                                                    
                                                                                                    
                                                                                                    
                                                                                                    
                                                                                                    
                                                                                                    
                                                                                                    
                                                                                                    
                                                                                                    
                                                                                                    
                                                                                                    
                                                                                                    
                                                                                                    
                           
<?xpacket end="w"?></metadata>
<defs>
    <style>
      .cls-1 {
        fill: #fff;
        fill-rule: evenodd;
      }
    </style>
  </defs>
  <path id="footer-invite" class="cls-1" d="M600.929,5694.89a0.491,0.491,0,0,0-.286.08l-14.857,8.57a0.523,0.523,0,0,0-.286.52,0.537,0.537,0,0,0,.357.5l3.527,1.44,9.545-8.26-7.715,9.46v3.11a0.568,0.568,0,0,0,.1.33,0.539,0.539,0,0,0,.272.21,0.554,0.554,0,0,0,.2.04,0.521,0.521,0,0,0,.437-0.21l2.161-2.63,4.045,1.65a0.579,0.579,0,0,0,.214.04,0.527,0.527,0,0,0,.277-0.07,0.554,0.554,0,0,0,.285-0.4l2.286-13.71a0.575,0.575,0,0,0-.241-0.58,0.589,0.589,0,0,0-.321-0.09h0Z" transform="translate(-585.5 -5694.88)"/>
</svg>
