<svg id="Группа_4" data-name="Группа 4" xmlns="http://www.w3.org/2000/svg" viewBox="0 0 133 133">
  <metadata><?xpacket begin="﻿" id="W5M0MpCehiHzreSzNTczkc9d"?>
<x:xmpmeta xmlns:x="adobe:ns:meta/" x:xmptk="Adobe XMP Core 5.6-c140 79.160451, 2017/05/06-01:08:21        ">
   <rdf:RDF xmlns:rdf="http://www.w3.org/1999/02/22-rdf-syntax-ns#">
      <rdf:Description rdf:about=""/>
   </rdf:RDF>
</x:xmpmeta>
                                                                                                    
                                                                                                    
                                                                                                    
                                                                                                    
                                                                                                    
                                                                                                    
                                                                                                    
                                                                                                    
                                                                                                    
                                                                                                    
                                                                                                    
                                                                                                    
                                                                                                    
                                                                                                    
                                                                                                    
                                                                                                    
                                                                                                    
                                                                                                    
                                                                                                    
                                                                                                    
                           
<?xpacket end="w"?></metadata>
<defs>
    <style>
      .cls-1 {
        fill: none;
        stroke: #00bfa5;
        stroke-width: 5px;
      }

      .cls-2 {
        fill: #00bfa5;
        fill-rule: evenodd;
      }
    </style>
  </defs>
  <circle class="cls-1" cx="66.5" cy="66.5" r="64"/>
  <path id="Forma_1" data-name="Forma 1" class="cls-2" d="M457.157,2483.38h24.022v8.08H457.157v-8.08Zm0,32.3h24.022v8.08H457.157v-8.08Zm-16.014-40.37h-8.007v8.07h-8.008v8.08h8.008v8.07h8.007v-8.07h8.007v-8.08h-8.007v-8.07Zm8.007,37.95-5.6-5.65-6.406,6.46-6.406-6.46-5.605,5.65,6.407,6.46-6.407,6.46,5.605,5.65,6.406-6.46,6.406,6.46,5.6-5.65-6.406-6.46Zm24.022,16.55a4,4,0,1,1-4-4.03A4.024,4.024,0,0,1,473.172,2529.81Zm0-20.18a4,4,0,1,1-4-4.04A4.015,4.015,0,0,1,473.172,2509.63Z" transform="translate(-387.5 -2438.5)"/>
</svg>
