<svg id="Группа_1" data-name="Группа 1" xmlns="http://www.w3.org/2000/svg" viewBox="0 0 136 136">
  <metadata><?xpacket begin="﻿" id="W5M0MpCehiHzreSzNTczkc9d"?>
<x:xmpmeta xmlns:x="adobe:ns:meta/" x:xmptk="Adobe XMP Core 5.6-c140 79.160451, 2017/05/06-01:08:21        ">
   <rdf:RDF xmlns:rdf="http://www.w3.org/1999/02/22-rdf-syntax-ns#">
      <rdf:Description rdf:about=""/>
   </rdf:RDF>
</x:xmpmeta>
                                                                                                    
                                                                                                    
                                                                                                    
                                                                                                    
                                                                                                    
                                                                                                    
                                                                                                    
                                                                                                    
                                                                                                    
                                                                                                    
                                                                                                    
                                                                                                    
                                                                                                    
                                                                                                    
                                                                                                    
                                                                                                    
                                                                                                    
                                                                                                    
                                                                                                    
                                                                                                    
                           
<?xpacket end="w"?></metadata>
<defs>
    <style>
      .cls-1 {
        fill: none;
        stroke: #00bfa5;
        stroke-width: 5px;
      }

      .cls-2 {
        fill: #00bfa5;
        fill-rule: evenodd;
      }
    </style>
  </defs>
  <circle class="cls-1" cx="68" cy="68" r="65.5"/>
  <path class="cls-2" d="M496.79,2096.66l-4.133-4.16a3.667,3.667,0,0,0-5.237,0l-0.562.56a33.1,33.1,0,0,0-18.451-5.62h-0.068a33.09,33.09,0,0,0-11.887,2.18l7.245-7.3a6.68,6.68,0,0,0,2.959.67,6.761,6.761,0,0,0,4.863-2.04,6.931,6.931,0,0,0,2.024-4.9,6.938,6.938,0,0,0-6.887-6.94,6.763,6.763,0,0,0-4.864,2.04,6.971,6.971,0,0,0-2.024,4.9,7.1,7.1,0,0,0,.664,2.98l-13.044,13.14-0.442-.44a3.667,3.667,0,0,0-5.237,0l-4.184,4.2a3.735,3.735,0,0,0,0,5.27l0.442,0.45-13.043,13.14a6.835,6.835,0,0,0-7.822,1.37,6.965,6.965,0,0,0,0,9.8,6.817,6.817,0,0,0,9.727,0,6.966,6.966,0,0,0,1.343-7.88l7.245-7.3a34.113,34.113,0,0,0,3.418,30.64l-0.7.7a3.782,3.782,0,0,0,0,5.3l4.15,4.18a3.691,3.691,0,0,0,5.238,0l4.149-4.18a3.782,3.782,0,0,0,0-5.3l-4.149-4.18a3.668,3.668,0,0,0-5.238,0l-0.119.12a29.443,29.443,0,0,1,.8-31.85,3.558,3.558,0,0,0,1.343.25,3.682,3.682,0,0,0,2.619-1.09l4.15-4.18a3.776,3.776,0,0,0,.833-4,28.833,28.833,0,0,1,31.613-.8l-0.255.26a3.77,3.77,0,0,0,0,5.29l4.15,4.18a3.667,3.667,0,0,0,5.237,0l4.15-4.18A3.742,3.742,0,0,0,496.79,2096.66ZM447.8,2144.79l-2.908,2.93-2.908-2.93,2.908-2.93Zm17.209-70.35a2.283,2.283,0,0,1,3.231,0,2.306,2.306,0,0,1,.663,1.63,2.28,2.28,0,0,1-3.894,1.62h0a2.282,2.282,0,0,1-.663-1.62A2.323,2.323,0,0,1,465.006,2074.44Zm-41.425,48.27a2.283,2.283,0,0,1-3.231,0,2.3,2.3,0,0,1,0-3.26,2.283,2.283,0,0,1,3.231,0A2.3,2.3,0,0,1,423.581,2122.71Zm20.712-21.22-2.908-2.93,2.908-2.93,1.446,1.46h0l1.445,1.46Zm45.728,0.74-2.908-2.93,2.908-2.93,2.908,2.93Z" transform="translate(-388.5 -2042.5)"/>
</svg>
