<svg id="Группа_2" data-name="Группа 2" xmlns="http://www.w3.org/2000/svg" viewBox="0 0 136 136">
  <metadata><?xpacket begin="﻿" id="W5M0MpCehiHzreSzNTczkc9d"?>
<x:xmpmeta xmlns:x="adobe:ns:meta/" x:xmptk="Adobe XMP Core 5.6-c140 79.160451, 2017/05/06-01:08:21        ">
   <rdf:RDF xmlns:rdf="http://www.w3.org/1999/02/22-rdf-syntax-ns#">
      <rdf:Description rdf:about=""/>
   </rdf:RDF>
</x:xmpmeta>
                                                                                                    
                                                                                                    
                                                                                                    
                                                                                                    
                                                                                                    
                                                                                                    
                                                                                                    
                                                                                                    
                                                                                                    
                                                                                                    
                                                                                                    
                                                                                                    
                                                                                                    
                                                                                                    
                                                                                                    
                                                                                                    
                                                                                                    
                                                                                                    
                                                                                                    
                                                                                                    
                           
<?xpacket end="w"?></metadata>
<defs>
    <style>
      .cls-1 {
        fill: none;
        stroke: #00bfa5;
        stroke-width: 5px;
      }

      .cls-2 {
        fill: #00bfa5;
        fill-rule: evenodd;
      }
    </style>
  </defs>
  <circle class="cls-1" cx="68" cy="68" r="65.5"/>
  <path id="Forma_1" data-name="Forma 1" class="cls-2" d="M1050.96,2086.27a5.589,5.589,0,0,0-7.9.01l-3.15,3.15a5.619,5.619,0,0,0-.82,6.89l-30.34,12.16a6.7,6.7,0,0,0-2.03,10.9l28.43,28.12a6.672,6.672,0,0,0,4.57,1.96h0.17a7.077,7.077,0,0,0,1.37-.14,6.642,6.642,0,0,0,4.86-4.09l11.94-29.89a5.586,5.586,0,0,0,7.01-.73l3.15-3.15a5.577,5.577,0,0,0,.01-7.91Zm-8.99,57.3a2.237,2.237,0,0,1-3.66.77l-28.45-28.14a2.241,2.241,0,0,1,.69-3.63l13.89-5.56c9.37,3.11,18.73.11,28.1,10.1Zm23.1-35.28-3.16,3.16a1.129,1.129,0,0,1-1.58,0l-3.95-3.95-3.2,8.02,0.26-.68c-6.73-6.72-13.56-7.56-19.73-8.32-1.98-.24-3.91-0.5-5.8-0.91l18.98-7.6-3.83-3.83a1.111,1.111,0,0,1,0-1.58l3.16-3.17a1.129,1.129,0,0,1,1.58,0l17.27,17.28A1.111,1.111,0,0,1,1065.07,2108.29Zm-23.45,16.58a5.585,5.585,0,1,0-5.59-5.59A5.593,5.593,0,0,0,1041.62,2124.87Zm0-8.94a3.355,3.355,0,1,1-3.35,3.35A3.35,3.35,0,0,1,1041.62,2115.93Zm29.06-38a5.59,5.59,0,1,0,5.58,5.59A5.593,5.593,0,0,0,1070.68,2077.93Zm0,8.94a3.35,3.35,0,1,1,3.35-3.35A3.359,3.359,0,0,1,1070.68,2086.87Zm-48.06,29.06a4.47,4.47,0,1,0,4.47-4.47A4.468,4.468,0,0,0,1022.62,2115.93Zm4.47-2.23a2.235,2.235,0,1,1-2.24,2.23A2.232,2.232,0,0,1,1027.09,2113.7Zm6.7,13.41a2.235,2.235,0,1,1-2.23,2.23A2.234,2.234,0,0,1,1033.79,2127.11Zm35.77-33.53a2.235,2.235,0,1,1-2.24,2.23A2.232,2.232,0,0,1,1069.56,2093.58Z" transform="translate(-972.5 -2046.5)"/>
</svg>
