<svg id="Группа_6" data-name="Группа 6" xmlns="http://www.w3.org/2000/svg" viewBox="0 0 124 124">
  <metadata><?xpacket begin="﻿" id="W5M0MpCehiHzreSzNTczkc9d"?>
<x:xmpmeta xmlns:x="adobe:ns:meta/" x:xmptk="Adobe XMP Core 5.6-c140 79.160451, 2017/05/06-01:08:21        ">
   <rdf:RDF xmlns:rdf="http://www.w3.org/1999/02/22-rdf-syntax-ns#">
      <rdf:Description rdf:about=""/>
   </rdf:RDF>
</x:xmpmeta>
                                                                                                    
                                                                                                    
                                                                                                    
                                                                                                    
                                                                                                    
                                                                                                    
                                                                                                    
                                                                                                    
                                                                                                    
                                                                                                    
                                                                                                    
                                                                                                    
                                                                                                    
                                                                                                    
                                                                                                    
                                                                                                    
                                                                                                    
                                                                                                    
                                                                                                    
                                                                                                    
                           
<?xpacket end="w"?></metadata>
<defs>
    <style>
      .cls-1 {
        fill: #00bfa5;
      }

      .cls-2 {
        fill: #fff;
        fill-rule: evenodd;
      }
    </style>
  </defs>
  <circle class="cls-1" cx="62" cy="62" r="62"/>
  <path id="Forma_1" data-name="Forma 1" class="cls-2" d="M1074.04,2292.88a11.87,11.87,0,0,1-2.72,5.1,0.916,0.916,0,0,0-.32-0.33,49.79,49.79,0,0,1-10.46-9.08c-2.8-3.01-5.78-6.44-6.98-10.48a19.762,19.762,0,0,0,2.32-2.74,0.857,0.857,0,0,0-1.16-1.17c-6.89,3.21-9.49,11.74-8.19,18.72a58.545,58.545,0,0,0,1.88,6.82c-6.9-1.8-13.56-2.83-19.53,2.78-3.69,3.48-4.97,7.86-5.19,12.46a0.5,0.5,0,0,0-.02.8,63.681,63.681,0,0,0,.92,10.43c0.01,0.03.01,0.06,0.02,0.09-2.72-.47-5.41-1.03-7.95-1.4-5.8-.84-13.73-1.03-16.49,5.35a0.767,0.767,0,0,0,1.32.78,8.959,8.959,0,0,1,1.33-1.67,40.339,40.339,0,0,1,17.26,14.11c0.98,1.46,1.36,3.18,2.1,4.71a6.153,6.153,0,0,1-2.11,1.75,0.955,0.955,0,0,0,.72,1.74c6.23-2.46,6.87-11.72,6.92-17.45a42.986,42.986,0,0,0-.33-5.17c7.1,0.88,13.85.17,19.48-5.22,5.58-5.35,6.45-13.54,5.05-20.8a36.233,36.233,0,0,0,7.65,1.53c7.32,0.39,14.97-3.39,16.58-11.07A1.091,1.091,0,0,0,1074.04,2292.88Zm-50.36,52.57c-1.3-3.49-5.01-7.16-6.98-9.1-3.38-3.35-7.8-6.81-12.55-8.07a10.854,10.854,0,0,1,4.1-1.49,1.14,1.14,0,0,0,.19.1,44.918,44.918,0,0,1,7.37,3.93c3.9,2.39,6.04,6,8.08,9.97a0.8,0.8,0,0,0,.88.42A21.652,21.652,0,0,1,1023.68,2345.45Zm1.42-6.76c0,0.03-.01.07-0.01,0.1-2.23-5.72-7.67-10.05-13.42-12.22,4.08,0.09,8.42,1.2,11.7,1.82,0.52,0.1,1.03.19,1.55,0.28A45.947,45.947,0,0,1,1025.1,2338.69Zm1.98-12.02a85.217,85.217,0,0,1-1.03-9.51,25.154,25.154,0,0,1,4.95,4.42c1.44,1.62,2.48,3.69,3.81,5.43A34.216,34.216,0,0,1,1027.08,2326.67Zm9.93,0.02c-0.99-2.35-3.1-4.6-4.71-6.41a19.3,19.3,0,0,0-6.24-4.67,18.463,18.463,0,0,1,1.12-6.06c2.72,2.32,5.47,4.59,8.08,7.04,2.53,2.37,4.92,5.37,7.71,7.53A14.991,14.991,0,0,1,1037.01,2326.69Zm8.2-4.54c-0.24.26-.5,0.5-0.75,0.74-2.15-2.86-5.28-5.3-7.86-7.65a59.979,59.979,0,0,0-8.92-6.87,16.105,16.105,0,0,1,2.87-4.18,11.453,11.453,0,0,1,1.14-1.08c0.68,2.6,4.87,6.64,5.6,7.38a49.358,49.358,0,0,0,7.03,5.8,13.623,13.623,0,0,0,3.66,1.99A18.793,18.793,0,0,1,1045.21,2322.15Zm3.67-5.81c-0.83-.41-1.9-0.67-2.62-1.09a42.9,42.9,0,0,1-6.16-4.57c-2.61-2.25-6.04-5.05-7.13-8.51a11.683,11.683,0,0,1,5.69-1.71c-0.08,2.64,1.53,5.03,3.31,6.97a27.248,27.248,0,0,0,4.3,3.64c0.99,0.71,2.29,1.91,3.58,1.99A19.339,19.339,0,0,1,1048.88,2316.34Zm1.25-5.11a10.887,10.887,0,0,0-1.34-.83,38.228,38.228,0,0,1-4.04-2.86c-2.35-1.9-4.3-4.17-4.83-7.1a37.744,37.744,0,0,1,9.23,1.77,27.07,27.07,0,0,1,1.05,5.74A21.034,21.034,0,0,1,1050.13,2311.23Zm3.14-10.2c-0.65-.17-1.29-0.34-1.93-0.52-1.23-4.55-3.13-8.64-2.78-13.38,2.63,4,8.55,12.07,12.83,14.85A27.3,27.3,0,0,1,1053.27,2301.03Zm11.55-.22c-3.33.83-7.2-4.73-9.04-6.87-2.42-2.82-4.61-5.83-6.95-8.72,0.54-2.65,2.09-4.41,3.74-6.11,0.77,3.51,3.28,6.63,5.46,9.33a47.018,47.018,0,0,0,11.87,10.82,12.619,12.619,0,0,1-4.23,2.06A0.7,0.7,0,0,0,1064.82,2300.81Z" transform="translate(-975 -2249)"/>
</svg>
