<?xml version="1.0" encoding="UTF-8"?>
<svg width="17px" height="14px" viewBox="0 0 17 14" version="1.1" xmlns="http://www.w3.org/2000/svg" xmlns:xlink="http://www.w3.org/1999/xlink">
    <!-- Generator: Sketch 48.2 (47327) - http://www.bohemiancoding.com/sketch -->
    <title>Shape</title>
    <desc>Created with Sketch.</desc>
    <defs></defs>
    <g id="Page-1" stroke="none" stroke-width="1" fill="none" fill-rule="evenodd">
        <path d="M16.574,1.86516733 C15.9858101,2.12662116 15.3527995,2.3029807 14.6886093,2.38190403 C15.3667654,1.97591982 15.8867499,1.33284083 16.1319644,0.565693076 C15.4976547,0.942121633 14.7954644,1.21526781 14.0474791,1.36272127 C13.448896,0.724838885 12.5956796,0.326 11.6515227,0.326 C9.8388844,0.326 8.36922157,1.79566283 8.36922157,3.60862591 C8.36922157,3.86553271 8.39812764,4.11594377 8.45431586,4.35661121 C5.72610198,4.21955094 3.30708568,2.91293137 1.68802066,0.926856627 C1.40545566,1.41143938 1.24371155,1.97527024 1.24371155,2.57742602 C1.24371155,3.71613052 1.82313221,4.72102263 2.70395554,5.30953734 C2.16610767,5.29232361 1.65976416,5.14454536 1.21707898,4.89868132 C1.2167542,4.91232239 1.2167542,4.92628825 1.2167542,4.94025411 C1.2167542,6.53041305 2.34831338,7.85684465 3.85013016,8.1588969 C3.57471047,8.23359799 3.28467535,8.27387163 2.9852214,8.27387163 C2.77346004,8.27387163 2.56786964,8.25341002 2.36747583,8.21476033 C2.78547717,9.5187816 3.99758362,10.4681351 5.43379335,10.4944428 C4.31035386,11.3749414 2.8952553,11.8997978 1.35706234,11.8997978 C1.09236064,11.8997978 0.830906806,11.884208 0.574,11.853678 C2.02709867,12.7854929 3.75236916,13.3285374 5.60593066,13.3285374 C11.6440526,13.3285374 14.9455161,8.32681197 14.9455161,3.98895191 C14.9455161,3.84669504 14.9425931,3.70476297 14.9364221,3.56380525 C15.5775524,3.10195762 16.1342379,2.52351132 16.574,1.86516733 Z" id="Shape" fill="#FFFFFF" fill-rule="nonzero"></path>
    </g>
</svg>