<svg xmlns="http://www.w3.org/2000/svg" width="102.219" height="41.687" viewBox="0 0 102.219 41.687">
  <metadata><?xpacket begin="﻿" id="W5M0MpCehiHzreSzNTczkc9d"?>
<x:xmpmeta xmlns:x="adobe:ns:meta/" x:xmptk="Adobe XMP Core 5.6-c140 79.160451, 2017/05/06-01:08:21        ">
   <rdf:RDF xmlns:rdf="http://www.w3.org/1999/02/22-rdf-syntax-ns#">
      <rdf:Description rdf:about=""/>
   </rdf:RDF>
</x:xmpmeta>
                                                                                                    
                                                                                                    
                                                                                                    
                                                                                                    
                                                                                                    
                                                                                                    
                                                                                                    
                                                                                                    
                                                                                                    
                                                                                                    
                                                                                                    
                                                                                                    
                                                                                                    
                                                                                                    
                                                                                                    
                                                                                                    
                                                                                                    
                                                                                                    
                                                                                                    
                                                                                                    
                           
<?xpacket end="w"?></metadata>
<defs>
    <style>
      .cls-1 {
        fill: #fff;
        fill-rule: evenodd;
      }
    </style>
  </defs>
  <path id="main-logo" class="cls-1" d="M387.76,132.218h25.259v-7.68h-16.08V91.779H387.76v40.439Zm62.8,0h8.94l-2.22-40.439H445.339l-4.32,13.44c-1.32,4.5-2.7,9.839-3.84,14.519H437c-0.9-4.74-2.16-9.78-3.42-14.459l-3.96-13.5H417.44l-2.58,40.439h8.46l0.72-15.36c0.3-5.04.479-11.279,0.719-16.739h0.12c0.96,5.28,2.34,11.039,3.66,15.779l4.32,15.66H440l4.92-15.78c1.56-4.74,3.24-10.5,4.5-15.659h0.18c0,5.88.18,11.759,0.36,16.619Zm11.642-1.86a26.465,26.465,0,0,0,11.459,2.46c11.1,0,16.32-5.76,16.32-12.54,0-5.7-3.36-9.42-10.5-12.059-5.22-1.98-7.5-3.12-7.5-5.7,0-2.1,1.919-3.9,5.879-3.9a19.223,19.223,0,0,1,8.46,1.92l2.04-7.38a24.779,24.779,0,0,0-10.32-2.04c-9.539,0-15.3,5.28-15.3,12.18,0,5.879,4.38,9.6,11.1,11.939,4.86,1.74,6.78,3.18,6.78,5.7,0,2.64-2.22,4.38-6.42,4.38a23.331,23.331,0,0,1-10.139-2.52Z" transform="translate(-387.75 -91.125)"/>
</svg>
