<svg xmlns="http://www.w3.org/2000/svg" width="16.781" height="12.6" viewBox="0 0 16.781 12.6">
  <metadata><?xpacket begin="﻿" id="W5M0MpCehiHzreSzNTczkc9d"?>
<x:xmpmeta xmlns:x="adobe:ns:meta/" x:xmptk="Adobe XMP Core 5.6-c140 79.160451, 2017/05/06-01:08:21        ">
   <rdf:RDF xmlns:rdf="http://www.w3.org/1999/02/22-rdf-syntax-ns#">
      <rdf:Description rdf:about=""/>
   </rdf:RDF>
</x:xmpmeta>
                                                                                                    
                                                                                                    
                                                                                                    
                                                                                                    
                                                                                                    
                                                                                                    
                                                                                                    
                                                                                                    
                                                                                                    
                                                                                                    
                                                                                                    
                                                                                                    
                                                                                                    
                                                                                                    
                                                                                                    
                                                                                                    
                                                                                                    
                                                                                                    
                                                                                                    
                                                                                                    
                           
<?xpacket end="w"?></metadata>
<defs>
    <style>
      .cls-1 {
        fill-rule: evenodd;
        opacity: 0.75;
      }
    </style>
  </defs>
  <path id="category-icon" class="cls-1" d="M406.57,3322.04a1.321,1.321,0,0,0-.54-0.11h-9.714a3.1,3.1,0,0,0-1.281.31,3.072,3.072,0,0,0-1.076.78l-3,3.54a0.91,0.91,0,0,0-.277.59,0.393,0.393,0,0,0,.237.38,1.173,1.173,0,0,0,.54.12h9.713a3.125,3.125,0,0,0,1.281-.32,3.055,3.055,0,0,0,1.076-.77l3-3.54a0.937,0.937,0,0,0,.277-0.59A0.406,0.406,0,0,0,406.57,3322.04Zm-3.415-4.1a1.936,1.936,0,0,0-1.41-.59h-4.857v-0.29a1.918,1.918,0,0,0-.589-1.41,1.938,1.938,0,0,0-1.411-.59h-2.857a2.013,2.013,0,0,0-2,2v8.59c0,0.02,0,.06,0,0.11s0,0.09,0,.11l0.045-.05,3.008-3.55a4.231,4.231,0,0,1,1.465-1.06,4.1,4.1,0,0,1,1.758-.43h7.428v-1.43A1.914,1.914,0,0,0,403.155,3317.94Z" transform="translate(-390.031 -3315.06)"/>
</svg>
