<?xml version="1.0" encoding="UTF-8"?>
<svg width="8px" height="8px" viewBox="0 0 8 8" version="1.1" xmlns="http://www.w3.org/2000/svg" xmlns:xlink="http://www.w3.org/1999/xlink">
    <!-- Generator: Sketch 48.2 (47327) - http://www.bohemiancoding.com/sketch -->
    <title>left-arrow</title>
    <desc>Created with Sketch.</desc>
    <defs></defs>
    <g id="Page-1" stroke="none" stroke-width="1" fill="none" fill-rule="evenodd">
        <path d="M4.74366846,7.15865949 C4.80060947,7.2022409 4.8341207,7.27063764 4.8341207,7.34327334 C4.8341207,7.41590904 4.80060947,7.48430577 4.74366846,7.52788719 L4.33160826,7.92788388 C4.28091112,7.97965149 4.21236694,8.00910397 4.14065353,8.00993448 C4.06936379,8.00709367 4.00150893,7.97793738 3.9496988,7.92788388 L0.0904032326,4.19458151 C0.0390714163,4.1475075 0.00975289796,4.08039551 0.00975289796,4.00996765 C0.00975289796,3.9395398 0.0390714163,3.87242781 0.0904032326,3.8253538 L3.9496988,0.0920514307 C4.00150893,0.0419979273 4.06936379,0.0128416346 4.14065353,0.0100008291 C4.21236694,0.0108313352 4.28091112,0.040283817 4.33160826,0.0920514307 L4.74366846,0.492048113 C4.80060947,0.535629532 4.8341207,0.604026268 4.8341207,0.676661966 C4.8341207,0.749297665 4.80060947,0.817694401 4.74366846,0.86127582 L1.49743807,4.00996765 L4.74366846,7.15865949 Z M7.92959735,7.15865949 C7.98064132,7.20590138 8.0097529,7.27295103 8.0097529,7.34327334 C8.0097529,7.41359565 7.98064132,7.4806453 7.92959735,7.52788719 L7.5074869,7.92788388 C7.45791636,7.98133587 7.38863892,8.01110343 7.31653217,8.00993448 C7.24524243,8.00709367 7.17738757,7.97793738 7.12557744,7.92788388 L3.27633213,4.19458151 C3.21939112,4.15100009 3.18587989,4.08260335 3.18587989,4.00996765 C3.18587989,3.93733195 3.21939112,3.86893522 3.27633213,3.8253538 L7.12557744,0.0920514307 C7.17738757,0.0419979273 7.24524243,0.0128416346 7.31653217,0.0100008291 C7.38863892,0.00883187473 7.45791636,0.0385994323 7.5074869,0.0920514307 L7.92959735,0.492048113 C7.98064132,0.539290007 8.0097529,0.606339659 8.0097529,0.676661966 C8.0097529,0.746984274 7.98064132,0.814033926 7.92959735,0.86127582 L4.67331672,4.00996765 L7.92959735,7.15865949 Z" id="left-arrow" fill="#009688"></path>
    </g>
</svg>