<svg xmlns="http://www.w3.org/2000/svg" width="13.35" height="11.438" viewBox="0 0 13.35 11.438">
  <metadata><?xpacket begin="﻿" id="W5M0MpCehiHzreSzNTczkc9d"?>
<x:xmpmeta xmlns:x="adobe:ns:meta/" x:xmptk="Adobe XMP Core 5.6-c140 79.160451, 2017/05/06-01:08:21        ">
   <rdf:RDF xmlns:rdf="http://www.w3.org/1999/02/22-rdf-syntax-ns#">
      <rdf:Description rdf:about=""/>
   </rdf:RDF>
</x:xmpmeta>
                                                                                                    
                                                                                                    
                                                                                                    
                                                                                                    
                                                                                                    
                                                                                                    
                                                                                                    
                                                                                                    
                                                                                                    
                                                                                                    
                                                                                                    
                                                                                                    
                                                                                                    
                                                                                                    
                                                                                                    
                                                                                                    
                                                                                                    
                                                                                                    
                                                                                                    
                                                                                                    
                           
<?xpacket end="w"?></metadata>
<defs>
    <style>
      .cls-1 {
        fill: #00bfa5;
        fill-rule: evenodd;
      }
    </style>
  </defs>
  <path id="login-icon" class="cls-1" d="M1475.64,23.808l-4.72-4.857a0.533,0.533,0,0,0-.78,0,0.562,0.562,0,0,0-.17.4v2.571h-3.89a0.526,0.526,0,0,0-.39.17,0.562,0.562,0,0,0-.17.4v3.429a0.561,0.561,0,0,0,.17.4,0.526,0.526,0,0,0,.39.17h3.89v2.572a0.561,0.561,0,0,0,.17.4,0.533,0.533,0,0,0,.78,0l4.72-4.857a0.56,0.56,0,0,0,0-.8h0Zm2.49-4.558a2.382,2.382,0,0,0-1.77-.755h-2.78a0.24,0.24,0,0,0-.17.058,0.25,0.25,0,0,0-.09.174,1.917,1.917,0,0,0-.03.21,2.148,2.148,0,0,0,.01.237c0,0.1.01,0.155,0.01,0.179a0.433,0.433,0,0,0,.01.12,0.466,0.466,0,0,0,.06.08,0.572,0.572,0,0,1,.07.049,0.254,0.254,0,0,0,.1.027c0.05,0.006.09,0.009,0.1,0.009h2.71a1.339,1.339,0,0,1,.99.42,1.4,1.4,0,0,1,.4,1.009v6.286a1.4,1.4,0,0,1-.4,1.009,1.338,1.338,0,0,1-.99.42h-2.78a0.24,0.24,0,0,0-.17.058,0.25,0.25,0,0,0-.09.174,1.917,1.917,0,0,0-.03.21,2.148,2.148,0,0,0,.01.237c0,0.1.01,0.155,0.01,0.179a0.257,0.257,0,0,0,.08.2,0.252,0.252,0,0,0,.19.085h2.78a2.382,2.382,0,0,0,1.77-.755,2.514,2.514,0,0,0,.74-1.817V21.067A2.515,2.515,0,0,0,1478.13,19.25Z" transform="translate(-1465.53 -18.5)"/>
</svg>
