<?xml version="1.0" encoding="UTF-8"?>
<svg width="8px" height="8px" viewBox="0 0 8 8" version="1.1" xmlns="http://www.w3.org/2000/svg" xmlns:xlink="http://www.w3.org/1999/xlink">
    <!-- Generator: Sketch 48.2 (47327) - http://www.bohemiancoding.com/sketch -->
    <title>right-arrow</title>
    <desc>Created with Sketch.</desc>
    <defs></defs>
    <g id="Page-1" stroke="none" stroke-width="1" fill="none" fill-rule="evenodd">
        <path d="M4.90625483,7.14871795 C4.96526878,7.19229973 5,7.26069703 5,7.33333333 C5,7.40596963 4.96526878,7.47436694 4.90625483,7.51794872 L4.47919348,7.91794872 C4.4266507,7.96971676 4.35561116,7.99916949 4.281287,8 C4.20740194,7.99715917 4.13707681,7.96800264 4.08338052,7.91794872 L0.0835864283,4.18461538 C0.0303858656,4.13754099 0,4.07042844 0,4 C0,3.92957156 0.0303858656,3.86245901 0.0835864283,3.81538462 L4.08338052,0.0820512821 C4.13707681,0.0319973635 4.20740194,0.00284082902 4.281287,0 C4.35561116,0.000830512917 4.4266507,0.030283239 4.47919348,0.0820512821 L4.90625483,0.482051282 C4.96526878,0.525633063 5,0.594030366 5,0.666666667 C5,0.739302967 4.96526878,0.807700271 4.90625483,0.851282051 L1.54184469,4 L4.90625483,7.14871795 Z M7.91691785,7.14869183 C7.96982551,7.19593373 8,7.26298338 8,7.33330569 C8,7.40362799 7.96982551,7.47067765 7.91691785,7.51791954 L7.4793955,7.91791622 C7.42801506,7.97136822 7.35620819,8.00113578 7.28146872,7.99996682 C7.20757609,7.99712602 7.13724374,7.96796973 7.08354195,7.91791622 L3.09375479,4.18461385 C3.03473478,4.14103243 3,4.0726357 3,4 C3,3.9273643 3.03473478,3.85896757 3.09375479,3.81538615 L7.08354195,0.0820837778 C7.13724374,0.0320302744 7.20757609,0.00287398175 7.28146872,3.31762934e-05 C7.35620819,-0.00113577812 7.42801506,0.0286317795 7.4793955,0.0820837778 L7.91691785,0.48208046 C7.96982551,0.529322354 8,0.596372006 8,0.666694314 C8,0.737016621 7.96982551,0.804066273 7.91691785,0.851308167 L4.54174543,4 L7.91691785,7.14869183 Z" id="right-arrow" fill="#009688" transform="translate(4.000000, 4.000000) scale(-1, 1) translate(-4.000000, -4.000000) "></path>
    </g>
</svg>