<svg xmlns="http://www.w3.org/2000/svg" width="15.594" height="12.594" viewBox="0 0 15.594 12.594">
  <metadata><?xpacket begin="﻿" id="W5M0MpCehiHzreSzNTczkc9d"?>
<x:xmpmeta xmlns:x="adobe:ns:meta/" x:xmptk="Adobe XMP Core 5.6-c140 79.160451, 2017/05/06-01:08:21        ">
   <rdf:RDF xmlns:rdf="http://www.w3.org/1999/02/22-rdf-syntax-ns#">
      <rdf:Description rdf:about=""/>
   </rdf:RDF>
</x:xmpmeta>
                                                                                                    
                                                                                                    
                                                                                                    
                                                                                                    
                                                                                                    
                                                                                                    
                                                                                                    
                                                                                                    
                                                                                                    
                                                                                                    
                                                                                                    
                                                                                                    
                                                                                                    
                                                                                                    
                                                                                                    
                                                                                                    
                                                                                                    
                                                                                                    
                                                                                                    
                                                                                                    
                           
<?xpacket end="w"?></metadata>
<defs>
    <style>
      .cls-1 {
        fill: #00bfa5;
        fill-rule: evenodd;
      }
    </style>
  </defs>
  <path id="mail-icon" class="cls-1" d="M599.784,23.839q-2.856,1.982-4.337,3.08-0.5.375-.8,0.585a4.986,4.986,0,0,1-.823.429,2.459,2.459,0,0,1-.958.219h-0.018a2.459,2.459,0,0,1-.958-0.219,4.946,4.946,0,0,1-.823-0.429q-0.309-.21-0.805-0.585-1.176-.884-4.328-3.08a4.666,4.666,0,0,1-.88-0.777v7.089a1.393,1.393,0,0,0,.41,1.009,1.324,1.324,0,0,0,.984.42h12.818a1.323,1.323,0,0,0,.984-0.42,1.393,1.393,0,0,0,.41-1.009V23.062a4.851,4.851,0,0,1-.871.777h0Zm0.457-4.411a1.33,1.33,0,0,0-.98-0.42H586.443a1.231,1.231,0,0,0-1.032.464,1.833,1.833,0,0,0-.362,1.161,2.117,2.117,0,0,0,.479,1.219,4.39,4.39,0,0,0,1.019,1.031q0.3,0.214,1.785,1.272t2.282,1.629l0.37,0.272c0.189,0.14.345,0.253,0.47,0.339s0.276,0.183.453,0.29a2.6,2.6,0,0,0,.5.241,1.354,1.354,0,0,0,.435.08h0.018a1.354,1.354,0,0,0,.435-0.08,2.6,2.6,0,0,0,.5-0.241q0.265-.161.453-0.29c0.125-.086.281-0.2,0.47-0.339l0.37-.272,4.076-2.9a4.2,4.2,0,0,0,1.062-1.1,2.4,2.4,0,0,0,.427-1.348A1.385,1.385,0,0,0,600.241,19.428Z" transform="translate(-585.062 -19)"/>
</svg>
