<svg xmlns="http://www.w3.org/2000/svg" width="11.13" height="13.719" viewBox="0 0 11.13 13.719">
  <metadata><?xpacket begin="﻿" id="W5M0MpCehiHzreSzNTczkc9d"?>
<x:xmpmeta xmlns:x="adobe:ns:meta/" x:xmptk="Adobe XMP Core 5.6-c140 79.160451, 2017/05/06-01:08:21        ">
   <rdf:RDF xmlns:rdf="http://www.w3.org/1999/02/22-rdf-syntax-ns#">
      <rdf:Description rdf:about=""/>
   </rdf:RDF>
</x:xmpmeta>
                                                                                                    
                                                                                                    
                                                                                                    
                                                                                                    
                                                                                                    
                                                                                                    
                                                                                                    
                                                                                                    
                                                                                                    
                                                                                                    
                                                                                                    
                                                                                                    
                                                                                                    
                                                                                                    
                                                                                                    
                                                                                                    
                                                                                                    
                                                                                                    
                                                                                                    
                                                                                                    
                           
<?xpacket end="w"?></metadata>
<defs>
    <style>
      .cls-1 {
        fill: #00bfa5;
        fill-rule: evenodd;
      }
    </style>
  </defs>
  <path id="register-icon" class="cls-1" d="M1369.88,27.268a8.272,8.272,0,0,0-.27-1.357,4.332,4.332,0,0,0-.51-1.17,2.472,2.472,0,0,0-.81-0.795,2.219,2.219,0,0,0-1.17-.308,3.808,3.808,0,0,1-5.44,0,2.219,2.219,0,0,0-1.17.308,2.5,2.5,0,0,0-.82.795,4.666,4.666,0,0,0-.5,1.17,7.379,7.379,0,0,0-.28,1.357,13.021,13.021,0,0,0-.07,1.433,2.643,2.643,0,0,0,.54,1.67,1.615,1.615,0,0,0,1.31.7h7.42a1.6,1.6,0,0,0,1.3-.7,2.593,2.593,0,0,0,.55-1.67A12.939,12.939,0,0,0,1369.88,27.268Zm-5.48-9.915a3.173,3.173,0,0,0-2.36,1,3.488,3.488,0,0,0,0,4.848,3.275,3.275,0,0,0,4.72,0,3.514,3.514,0,0,0,0-4.848A3.189,3.189,0,0,0,1364.4,17.353Z" transform="translate(-1358.84 -17.344)"/>
</svg>
