<svg xmlns="http://www.w3.org/2000/svg" width="102" height="105" viewBox="0 0 102 105"><path d="M40.647 49.4a1.847 1.847 0 0 0 .908.24 1.954 1.954 0 0 0 1.015-.3l20.778-13.37a1.92 1.92 0 0 0 0-3.22L42.57 19.39a1.874 1.874 0 0 0-1.925-.06 1.9 1.9 0 0 0-.979 1.67v26.73a1.908 1.908 0 0 0 .981 1.67zm2.8-24.92l15.372 9.88-15.372 9.89V24.48zM0 0v105h102V0H0zm98.222 3.82v63H3.778v-63h94.444zM3.778 101.18V70.64h94.444v30.54H3.778zm85-17.18H43.444v-3.82a1.889 1.889 0 1 0-3.778 0V84h-7.555a1.91 1.91 0 0 0 0 3.82h7.555v3.82a1.889 1.889 0 1 0 3.778 0v-3.82h45.334a1.91 1.91 0 0 0 0-3.82zm-75.556-5.73a1.9 1.9 0 0 0-1.889 1.91v11.46a1.889 1.889 0 1 0 3.778 0V80.18a1.9 1.9 0 0 0-1.889-1.91zm7.556 0a1.9 1.9 0 0 0-1.889 1.91v11.46a1.889 1.889 0 1 0 3.778 0V80.18a1.9 1.9 0 0 0-1.889-1.91z" fill="#fff" fill-rule="evenodd"/></svg>