<svg xmlns="http://www.w3.org/2000/svg" width="102" height="107" viewBox="0 0 102 107"><path d="M88.1 40.69v-4.12a37.309 37.309 0 0 0-9.93-25.78A34.487 34.487 0 0 0 52.74 0H49.3a34.48 34.48 0 0 0-25.424 10.79 37.3 37.3 0 0 0-9.933 25.78v4.12A14.841 14.841 0 0 0 0 55.39v6.43a14.846 14.846 0 0 0 14.923 14.72h8.406a2.719 2.719 0 0 0 2.731-2.7v-30.5a2.726 2.726 0 0 0-2.731-2.7h-3.918v-4.07c0-17.78 12.849-31.18 29.869-31.18h3.44c17.04 0 29.87 13.4 29.87 31.18v4.07h-3.92a2.736 2.736 0 0 0-2.74 2.7v30.48a2.736 2.736 0 0 0 2.74 2.7h3.83C81.38 90.59 71.56 93.85 67 94.59a9.589 9.589 0 0 0-9.13-6.54h-6.84a9.476 9.476 0 1 0 0 18.95h6.86a9.6 9.6 0 0 0 9.25-6.97 26.061 26.061 0 0 0 9.27-3.12c4.95-2.86 10.8-8.68 11.58-20.41A14.837 14.837 0 0 0 102 61.79v-6.42a14.77 14.77 0 0 0-13.9-14.68zM20.641 71.12h-5.673a9.4 9.4 0 0 1-9.455-9.33v-6.42a9.4 9.4 0 0 1 9.455-9.33h5.673v25.08zM57.89 101.6h-6.86a4.065 4.065 0 1 1 0-8.13h6.86a4.065 4.065 0 1 1 0 8.13zm38.66-39.81a9.392 9.392 0 0 1-9.45 9.33h-5.67V46.04h5.67a9.392 9.392 0 0 1 9.45 9.33v6.42z" fill="#fff" fill-rule="evenodd"/></svg>