<svg xmlns="http://www.w3.org/2000/svg" width="16" height="13.72" viewBox="0 0 16 13.72">
  <metadata><?xpacket begin="﻿" id="W5M0MpCehiHzreSzNTczkc9d"?>
<x:xmpmeta xmlns:x="adobe:ns:meta/" x:xmptk="Adobe XMP Core 5.6-c140 79.160451, 2017/05/06-01:08:21        ">
   <rdf:RDF xmlns:rdf="http://www.w3.org/1999/02/22-rdf-syntax-ns#">
      <rdf:Description rdf:about=""/>
   </rdf:RDF>
</x:xmpmeta>
                                                                                                    
                                                                                                    
                                                                                                    
                                                                                                    
                                                                                                    
                                                                                                    
                                                                                                    
                                                                                                    
                                                                                                    
                                                                                                    
                                                                                                    
                                                                                                    
                                                                                                    
                                                                                                    
                                                                                                    
                                                                                                    
                                                                                                    
                                                                                                    
                                                                                                    
                                                                                                    
                           
<?xpacket end="w"?></metadata>
<defs>
    <style>
      .cls-1 {
        fill: #fff;
        fill-rule: evenodd;
      }
    </style>
  </defs>
  <path id="footer-join" class="cls-1" d="M502.722,5697.66a1.16,1.16,0,0,0-1.143-1.14q-4.116,3.42-8,3.42h-4.286a1.434,1.434,0,0,0-1.428,1.43v1.72a1.434,1.434,0,0,0,1.428,1.43h1.09a4.6,4.6,0,0,0-.2.98,7.181,7.181,0,0,0-.031.88,4.943,4.943,0,0,0,.134.9c0.08,0.36.149,0.62,0.205,0.8s0.152,0.46.286,0.84,0.222,0.65.263,0.78a2.222,2.222,0,0,0,1.179.5,3.329,3.329,0,0,0,1.5-.1,1.552,1.552,0,0,0,1-.74c-0.226-.18-0.409-0.33-0.549-0.46a4.108,4.108,0,0,1-.429-0.44,1.742,1.742,0,0,1-.3-0.49,1.231,1.231,0,0,1-.053-0.52,1.425,1.425,0,0,1,.2-0.59,1.192,1.192,0,0,1-.357-0.82,1.437,1.437,0,0,1,.277-0.9,1.587,1.587,0,0,1,.812-0.59,13.319,13.319,0,0,1,7.25,3.39,1.142,1.142,0,0,0,1.143-1.14v-3.43a1.11,1.11,0,0,0,.808-0.33,1.094,1.094,0,0,0,.335-0.81,1.127,1.127,0,0,0-.335-0.81,1.11,1.11,0,0,0-.808-0.33v-3.43Zm-8,5.78v-2.41a13.956,13.956,0,0,0,6.857-3.07v8.52a13.93,13.93,0,0,0-6.857-3.04h0Z" transform="translate(-487.875 -5696.53)"/>
</svg>
