<svg xmlns="http://www.w3.org/2000/svg" width="17.156" height="16" viewBox="0 0 17.156 16">
  <metadata><?xpacket begin="﻿" id="W5M0MpCehiHzreSzNTczkc9d"?>
<x:xmpmeta xmlns:x="adobe:ns:meta/" x:xmptk="Adobe XMP Core 5.6-c140 79.160451, 2017/05/06-01:08:21        ">
   <rdf:RDF xmlns:rdf="http://www.w3.org/1999/02/22-rdf-syntax-ns#">
      <rdf:Description rdf:about=""/>
   </rdf:RDF>
</x:xmpmeta>
                                                                                                    
                                                                                                    
                                                                                                    
                                                                                                    
                                                                                                    
                                                                                                    
                                                                                                    
                                                                                                    
                                                                                                    
                                                                                                    
                                                                                                    
                                                                                                    
                                                                                                    
                                                                                                    
                                                                                                    
                                                                                                    
                                                                                                    
                                                                                                    
                                                                                                    
                                                                                                    
                           
<?xpacket end="w"?></metadata>
<defs>
    <style>
      .cls-1 {
        fill: #fff;
        fill-rule: evenodd;
      }
    </style>
  </defs>
  <path id="footer-team" class="cls-1" d="M393.3,5698.59a4.455,4.455,0,0,1,.045-0.59,3.5,3.5,0,0,1-1.187.2,3.081,3.081,0,0,1-1.063-.19,5.559,5.559,0,0,1-.87-0.38,1.746,1.746,0,0,0-.389-0.18q-1.107,0-1.107,3.15a1.213,1.213,0,0,0,.5,1.05,1.992,1.992,0,0,0,1.232.37h1.2a3.06,3.06,0,0,1,2.366-1.15,3.9,3.9,0,0,1-.724-2.28h0Zm10.255,7.05a9.463,9.463,0,0,0-.125-0.98,7.571,7.571,0,0,0-.237-0.96,4.776,4.776,0,0,0-.384-0.88,3.179,3.179,0,0,0-.553-0.72,2.346,2.346,0,0,0-.764-0.48,2.657,2.657,0,0,0-1-.17,0.994,0.994,0,0,0-.384.19c-0.2.13-.414,0.27-0.652,0.43a4.213,4.213,0,0,1-4.321,0c-0.238-.16-0.456-0.3-0.652-0.43a1,1,0,0,0-.384-0.19,2.657,2.657,0,0,0-1,.17,2.335,2.335,0,0,0-.764.48,3.179,3.179,0,0,0-.553.72,4.776,4.776,0,0,0-.384.88,7.4,7.4,0,0,0-.237.96,9.463,9.463,0,0,0-.125.98c-0.021.3-.031,0.61-0.031,0.92a2.205,2.205,0,0,0,.652,1.69,2.379,2.379,0,0,0,1.732.62h7.8a2.38,2.38,0,0,0,1.732-.62,2.205,2.205,0,0,0,.652-1.69C403.585,5706.25,403.575,5705.94,403.554,5705.64Zm-11.4-12.77a2.286,2.286,0,1,0,1.616.67A2.227,2.227,0,0,0,392.157,5692.87Zm5.142,2.29a3.421,3.421,0,1,0,2.425,1A3.3,3.3,0,0,0,397.3,5695.16Zm7.465,2.29a1.746,1.746,0,0,0-.389.18,5.559,5.559,0,0,1-.87.38,3.085,3.085,0,0,1-1.063.19,3.5,3.5,0,0,1-1.187-.2,4.439,4.439,0,0,1,.044.59,3.9,3.9,0,0,1-.723,2.28,3.06,3.06,0,0,1,2.366,1.15h1.2a1.994,1.994,0,0,0,1.232-.37,1.213,1.213,0,0,0,.5-1.05q0-3.15-1.107-3.15h0Zm-2.322-4.58a2.288,2.288,0,1,0,1.616.67A2.228,2.228,0,0,0,402.442,5692.87Z" transform="translate(-388.719 -5692.88)"/>
</svg>
