<svg id="Группа_3" data-name="Группа 3" xmlns="http://www.w3.org/2000/svg" viewBox="0 0 133 133">
  <metadata><?xpacket begin="﻿" id="W5M0MpCehiHzreSzNTczkc9d"?>
<x:xmpmeta xmlns:x="adobe:ns:meta/" x:xmptk="Adobe XMP Core 5.6-c140 79.160451, 2017/05/06-01:08:21        ">
   <rdf:RDF xmlns:rdf="http://www.w3.org/1999/02/22-rdf-syntax-ns#">
      <rdf:Description rdf:about=""/>
   </rdf:RDF>
</x:xmpmeta>
                                                                                                    
                                                                                                    
                                                                                                    
                                                                                                    
                                                                                                    
                                                                                                    
                                                                                                    
                                                                                                    
                                                                                                    
                                                                                                    
                                                                                                    
                                                                                                    
                                                                                                    
                                                                                                    
                                                                                                    
                                                                                                    
                                                                                                    
                                                                                                    
                                                                                                    
                                                                                                    
                           
<?xpacket end="w"?></metadata>
<defs>
    <style>
      .cls-1 {
        fill: none;
        stroke: #00bfa5;
        stroke-width: 5px;
      }

      .cls-2 {
        fill: #00bfa5;
        fill-rule: evenodd;
      }
    </style>
  </defs>
  <circle class="cls-1" cx="66.5" cy="66.5" r="64"/>
  <path id="Forma_1" data-name="Forma 1" class="cls-2" d="M465.579,2282.13l-2.687-.73a1.259,1.259,0,0,0-1.018.11,1.421,1.421,0,0,0-.672.84l-16.163,55.37a1.269,1.269,0,0,0,.108,1.05,1.43,1.43,0,0,0,.845.67l2.687,0.72a1.219,1.219,0,0,0,1.018-.1,1.425,1.425,0,0,0,.672-0.84l16.163-55.37a1.273,1.273,0,0,0-.109-1.05A1.428,1.428,0,0,0,465.579,2282.13Zm-24.222,10.81a1.329,1.329,0,0,0-.434-0.98l-2.167-2.15a1.37,1.37,0,0,0-1.993,0l-20.192,19.99a1.335,1.335,0,0,0,0,1.97l20.192,19.99a1.37,1.37,0,0,0,1.993,0l2.167-2.15a1.329,1.329,0,0,0,.434-0.98,1.367,1.367,0,0,0-.434-0.99l-17.029-16.86,17.029-16.85A1.367,1.367,0,0,0,441.357,2292.94ZM495,2309.8l-20.193-19.99a1.371,1.371,0,0,0-1.994,0l-2.166,2.15a1.332,1.332,0,0,0-.433.98,1.37,1.37,0,0,0,.433.99l17.03,16.85-17.03,16.86a1.37,1.37,0,0,0-.433.99,1.332,1.332,0,0,0,.433.98l2.166,2.15a1.371,1.371,0,0,0,1.994,0L495,2311.77A1.339,1.339,0,0,0,495,2309.8Z" transform="translate(-388.5 -2243.5)"/>
</svg>
