<svg id="Группа_5" data-name="Группа 5" xmlns="http://www.w3.org/2000/svg" viewBox="0 0 135 135">
  <metadata><?xpacket begin="﻿" id="W5M0MpCehiHzreSzNTczkc9d"?>
<x:xmpmeta xmlns:x="adobe:ns:meta/" x:xmptk="Adobe XMP Core 5.6-c140 79.160451, 2017/05/06-01:08:21        ">
   <rdf:RDF xmlns:rdf="http://www.w3.org/1999/02/22-rdf-syntax-ns#">
      <rdf:Description rdf:about=""/>
   </rdf:RDF>
</x:xmpmeta>
                                                                                                    
                                                                                                    
                                                                                                    
                                                                                                    
                                                                                                    
                                                                                                    
                                                                                                    
                                                                                                    
                                                                                                    
                                                                                                    
                                                                                                    
                                                                                                    
                                                                                                    
                                                                                                    
                                                                                                    
                                                                                                    
                                                                                                    
                                                                                                    
                                                                                                    
                                                                                                    
                           
<?xpacket end="w"?></metadata>
<defs>
    <style>
      .cls-1 {
        fill: none;
        stroke: #00bfa5;
        stroke-width: 5px;
      }

      .cls-2 {
        fill: #00bfa5;
        fill-rule: evenodd;
      }
    </style>
  </defs>
  <circle class="cls-1" cx="67.5" cy="67.5" r="65"/>
  <path class="cls-2" d="M1009.1,2510.31v19.06c0,4.46,4.1,7.73,8.54,7.73h38.92a7.388,7.388,0,0,0,7.58-7.73v-0.26l14.33,7.15a1.494,1.494,0,0,0,.74.2,4.939,4.939,0,0,0,4.86-5.19V2506.6c0-2.91-1.95-5.19-4.74-5.19a1.43,1.43,0,0,0-.73.2l-14.19,7.19a8.043,8.043,0,0,0-7.5-6.57,15.99,15.99,0,1,0-24.69-17.56,12.078,12.078,0,0,0-20.66,8.55,11.907,11.907,0,0,0,4.01,9.21A8.315,8.315,0,0,0,1009.1,2510.31Zm70.34-5.04a1.324,1.324,0,0,1,.84,1.33v24.67a1.33,1.33,0,0,1-.83,1.33l-15.31-7.76v-11.85Zm-44.96-7.05a14.98,14.98,0,0,0,3.56,3.63h-6.3A11.267,11.267,0,0,0,1034.48,2498.22Zm0.84-8.89a12.295,12.295,0,1,1,.37,2.92,11.109,11.109,0,0,0-.32-1.93C1035.35,2489.99,1035.32,2489.66,1035.32,2489.33Zm-11.67-4.43a8.315,8.315,0,0,1,7.96,6,15.518,15.518,0,0,0,.31,1.93c0.01,0.13.02,0.26,0.02,0.39A8.29,8.29,0,1,1,1023.65,2484.9Zm36.7,44.1a4.278,4.278,0,0,1-4.27,4.29h-38.91a4.278,4.278,0,0,1-4.27-4.29v-19.06a4.276,4.276,0,0,1,4.27-4.28h38.91a4.276,4.276,0,0,1,4.27,4.28V2529h0Z" transform="translate(-975.5 -2436.5)"/>
</svg>
