<?xml version="1.0" encoding="UTF-8"?>
<svg width="17px" height="16px" viewBox="0 0 17 16" version="1.1" xmlns="http://www.w3.org/2000/svg" xmlns:xlink="http://www.w3.org/1999/xlink">
    <!-- Generator: Sketch 48.2 (47327) - http://www.bohemiancoding.com/sketch -->
    <title>Combined Shape</title>
    <desc>Created with Sketch.</desc>
    <defs></defs>
    <g id="Page-1" stroke="none" stroke-width="1" fill="none" fill-rule="evenodd">
        <path d="M12.9107598,15.2532927 L12.9107598,9.19184023 C12.9107598,9.19184023 12.7313463,7.57036205 11.1634286,7.57036205 C9.59647811,7.57036205 9.30982218,9.11182467 9.30982218,9.11182467 L9.30982218,15.2532927 L6.08037965,15.2532927 L6.13304921,5.24060717 L9.25718383,5.24060717 L9.23181632,6.49915871 C9.23181632,6.49915871 9.88319644,4.8542659 12.3374168,4.8542659 C14.790701,4.8542659 15.9022845,6.26501249 16.109,8.9030599 C16.109,11.5420751 16.109,15.2532927 16.109,15.2532927 L12.9107598,15.2532927 Z M2.1196166,3.81818449 C1.00996766,3.81818449 0.109,3.02402295 0.109,2.04257566 C0.109,1.06112837 1.00996766,0.265 2.1196166,0.265 C3.22926553,0.265 4.13023319,1.06109715 4.13023319,2.04257566 C4.13023319,3.02405417 3.22923433,3.81818449 2.1196166,3.81818449 Z M4.11266628,15.265 L0.142168091,15.265 L0.142168091,5.26598862 L4.11266628,5.24060717 L4.11266628,15.265 Z" id="Combined-Shape" fill="#FFFFFF"></path>
    </g>
</svg>