<?xml version="1.0" encoding="UTF-8"?>
<svg width="19px" height="14px" viewBox="0 0 19 14" version="1.1" xmlns="http://www.w3.org/2000/svg" xmlns:xlink="http://www.w3.org/1999/xlink">
    <!-- Generator: Sketch 48.2 (47327) - http://www.bohemiancoding.com/sketch -->
    <title>Fill-195</title>
    <desc>Created with Sketch.</desc>
    <defs></defs>
    <g id="Page-1" stroke="none" stroke-width="1" fill="none" fill-rule="evenodd">
        <path d="M18.6461759,3.74737655 C18.6461759,3.74737655 18.4701759,2.47368419 17.9303759,1.91261881 C17.2461759,1.17657988 16.4787759,1.17308863 16.1269759,1.12996135 C13.6081759,0.942871094 9.82977592,0.942871094 9.82977592,0.942871094 L9.8217759,0.942871094 C9.8217759,0.942871094 6.04357594,0.942871094 3.52457592,1.12996135 C3.17277591,1.17308863 2.40577592,1.17657988 1.72117592,1.91261881 C1.18137592,2.47368419 1.00577592,3.74737655 1.00577592,3.74737655 C1.00577592,3.74737655 0.825775918,5.24307172 0.825775918,6.73876691 L0.825775918,8.14122499 C0.825775918,9.63671477 1.00577592,11.13241 1.00577592,11.13241 C1.00577592,11.13241 1.18137592,12.4061023 1.72117592,12.9671677 C2.40577592,13.703412 3.30517592,13.6797947 3.70577591,13.757013 C5.14597593,13.8989223 9.82577591,13.9428711 9.82577591,13.9428711 C9.82577591,13.9428711 13.6081759,13.9369154 16.1269759,13.7500305 C16.4787759,13.7069032 17.2461759,13.703412 17.9303759,12.9671677 C18.4701759,12.4061023 18.6461759,11.13241 18.6461759,11.13241 C18.6461759,11.13241 18.8257759,9.63671477 18.8257759,8.14122499 L18.8257759,6.73876691 C18.8257759,5.24307172 18.6461759,3.74737655 18.6461759,3.74737655 Z M7.96757593,9.8402345 L7.96677592,4.64709377 L12.8303759,7.25259763 L7.96757593,9.8402345 Z" id="Fill-195" fill="#FFFFFF" fill-rule="nonzero"></path>
    </g>
</svg>