<?xml version="1.0" encoding="UTF-8"?>
<svg width="26px" height="17px" viewBox="0 0 26 17" version="1.1" xmlns="http://www.w3.org/2000/svg" xmlns:xlink="http://www.w3.org/1999/xlink">
    <!-- Generator: Sketch 48.2 (47327) - http://www.bohemiancoding.com/sketch -->
    <title>Combined Shape</title>
    <desc>Created with Sketch.</desc>
    <defs></defs>
    <g id="Page-1" stroke="none" stroke-width="1" fill="none" fill-rule="evenodd">
        <path d="M8.82414171,7.1174918 C11.3527703,7.10983808 13.8813487,7.10603656 16.4138008,7.12514553 C16.565432,9.26408274 16.2849092,11.5404829 14.9808005,13.3088987 C13.005671,16.1085906 9.04026898,16.9259678 5.94682172,15.7266647 C2.84195434,14.5349645 0.643151207,11.2310899 0.904757766,7.86233605 C0.972976708,3.7410842 4.73367161,0.131668841 8.82414171,0.269182447 C10.7841282,0.177489814 12.6265427,1.03688649 14.1277619,2.24384336 C13.4870774,2.97718167 12.8237035,3.68380798 12.1147498,4.34456263 C10.3102682,3.08793259 7.74375693,2.72891715 5.93922507,4.18033702 C3.35752049,5.97931708 3.23999878,10.2265766 5.72314811,12.1630703 C8.1380282,14.3706882 12.7024086,13.274533 13.369606,9.89427318 C11.8569667,9.871312 10.3406045,9.89427318 8.82796519,9.8446 C8.82414171,8.93558083 8.82036854,8.02656166 8.82414171,7.1174918 Z M23.6166343,7.10603656 C24.3710674,7.11369028 25.1292736,7.11369028 25.8836564,7.12134401 C25.8836564,7.87759281 25.8836564,8.63764313 25.8836564,9.39394262 C25.1292736,9.40159634 24.3748405,9.40539786 23.6166343,9.41305159 C23.6090376,10.1769541 23.6052645,10.9370044 23.6014913,11.6971054 C22.8471085,11.6971054 22.0964989,11.6971054 21.3420659,11.6971054 C21.3344692,10.9370044 21.3344692,10.1769541 21.3268726,9.4168531 C20.5724395,9.40925007 19.8142333,9.40159634 19.0598505,9.39394262 C19.0598505,8.63764313 19.0598505,7.88139433 19.0598505,7.12134401 C19.8142333,7.11369028 20.5686663,7.10983808 21.3268726,7.10603656 C21.3306961,6.34213403 21.3382424,5.58208371 21.345839,4.8219827 C22.0964486,4.8219827 22.8470582,4.8219827 23.6014913,4.8219827 C23.6052645,5.58203303 23.6090376,6.34593555 23.6166343,7.10603656 Z" id="Combined-Shape" fill="#FFFFFF" fill-rule="nonzero"></path>
    </g>
</svg>